<?xml version="1.0" encoding="utf-8" ?>
<svg baseProfile="tiny" height="100%" version="1.2" width="100%" xmlns="http://www.w3.org/2000/svg" xmlns:ev="http://www.w3.org/2001/xml-events" xmlns:xlink="http://www.w3.org/1999/xlink"><defs /><polygon fill="#0d2a45" points="496,114 495,115 487,115 486,116 483,116 482,117 479,117 478,118 475,118 474,119 472,119 471,120 469,120 468,121 467,121 466,122 464,122 463,123 461,123 460,124 459,124 458,125 457,125 456,126 455,126 454,127 453,127 452,128 451,128 449,130 448,130 446,132 445,132 442,135 441,135 436,140 435,140 429,146 429,147 427,149 427,151 426,152 425,152 422,155 422,156 420,158 420,159 418,161 418,162 417,163 417,164 416,165 416,166 415,167 415,169 413,171 413,173 412,174 411,174 411,179 410,180 410,182 409,183 409,186 408,187 408,190 407,191 407,195 406,196 406,217 407,218 407,224 408,225 408,229 409,230 409,232 410,233 410,236 411,237 411,239 412,240 412,242 413,243 413,245 414,246 414,247 415,248 415,250 416,251 416,253 417,254 417,257 418,258 418,270 417,271 417,274 416,275 416,276 415,277 415,278 414,279 414,280 413,281 413,282 405,290 404,290 403,291 402,291 401,292 400,292 400,295 403,295 404,294 408,294 409,293 412,293 413,292 419,292 419,291 423,287 424,287 424,286 431,279 431,278 434,275 434,273 435,272 435,270 436,269 436,265 437,264 437,252 436,251 436,243 435,242 435,230 436,229 436,220 437,219 438,220 438,223 442,223 443,222 444,222 445,221 447,221 448,220 450,220 450,217 451,216 452,217 452,227 453,228 453,230 454,231 454,233 455,234 455,236 456,237 456,238 457,239 457,241 458,242 458,243 459,244 459,245 460,246 460,247 461,248 461,251 462,252 461,253 461,257 460,258 460,259 459,260 459,262 458,263 458,264 457,265 457,266 456,267 456,270 457,270 458,271 457,272 455,272 454,273 453,273 453,274 451,276 449,276 449,278 450,278 451,279 451,281 450,282 448,282 447,283 445,283 442,286 442,287 441,288 441,289 440,290 440,293 438,295 437,295 436,296 435,296 433,298 432,298 432,299 431,300 431,301 430,302 430,303 429,304 427,304 426,305 424,305 423,306 422,306 420,308 418,308 416,310 415,310 409,316 409,317 406,320 406,321 404,323 404,324 403,325 402,325 402,329 401,330 401,331 400,332 400,333 399,334 399,335 398,336 398,337 397,338 397,339 396,340 396,341 395,342 395,345 394,346 394,348 393,349 393,350 392,351 392,355 393,356 397,356 398,357 399,357 400,358 401,358 402,359 405,359 406,360 407,360 408,361 407,362 405,362 404,363 403,363 402,362 400,362 399,361 396,361 395,360 390,360 389,359 377,359 376,360 372,360 371,361 367,361 366,362 364,362 363,363 362,363 361,364 360,364 359,365 358,365 357,366 356,366 355,367 354,367 352,369 351,369 350,370 349,370 345,374 344,374 335,383 335,384 334,385 333,385 333,386 330,389 330,390 328,392 328,393 325,396 325,397 323,399 323,400 322,401 322,402 320,404 320,405 319,406 319,407 318,408 318,409 317,410 317,411 315,413 314,413 314,417 313,418 313,419 312,420 312,421 311,422 311,423 310,424 310,426 309,427 309,428 308,429 308,432 307,433 307,434 306,435 306,437 305,438 305,440 304,441 304,443 303,444 303,447 302,448 302,450 301,451 301,454 300,455 300,459 299,460 299,464 298,465 298,469 297,470 297,475 296,476 296,483 295,484 295,495 294,496 294,532 295,533 295,543 296,544 296,550 297,551 297,556 298,557 298,561 299,562 299,566 300,567 300,571 301,572 301,574 302,575 302,578 303,579 303,581 304,582 304,585 305,586 305,588 306,589 306,591 307,592 307,594 308,595 308,597 309,598 309,599 310,600 310,601 311,602 311,604 312,605 312,606 313,607 313,608 314,609 314,610 315,611 315,612 316,613 316,614 317,615 317,616 318,617 318,618 319,619 319,620 320,621 320,622 322,624 322,625 323,626 323,627 325,629 325,630 327,632 327,633 330,636 330,637 337,644 337,645 338,645 339,646 339,647 340,647 345,652 346,652 349,655 350,655 352,657 353,657 354,658 355,658 356,659 357,659 358,660 359,660 360,661 362,661 363,662 364,662 365,663 368,663 369,664 374,664 375,665 389,665 390,664 395,664 396,663 399,663 400,662 402,662 403,661 404,661 405,660 406,660 407,659 408,659 409,658 410,658 411,657 412,657 413,656 414,656 416,654 417,654 419,652 420,652 425,647 426,647 426,646 427,645 428,645 428,644 436,636 436,635 439,632 439,631 441,629 441,628 443,626 443,625 445,623 445,622 446,621 446,620 449,617 449,616 450,615 450,613 451,612 451,611 452,610 452,609 453,608 453,607 454,606 454,604 455,603 455,602 456,601 456,599 457,598 458,599 460,599 461,600 460,601 460,602 459,603 459,604 458,605 458,606 457,607 457,609 456,610 456,611 455,612 455,613 454,614 454,615 452,617 452,618 451,619 451,620 450,621 450,622 449,623 449,624 447,626 447,627 445,629 445,630 441,634 441,635 437,639 437,640 436,641 434,641 434,642 433,643 432,643 432,645 428,649 428,650 427,651 426,651 426,656 425,657 425,682 424,683 424,730 423,731 423,734 426,734 427,735 427,737 422,742 422,743 419,746 419,747 418,748 418,749 417,750 417,751 416,752 416,755 415,756 415,759 413,761 412,760 412,753 413,752 413,748 414,747 414,746 415,745 415,744 417,742 417,741 419,739 419,738 420,737 420,690 421,689 421,668 422,667 422,656 419,656 417,658 416,658 414,660 413,660 411,662 410,662 409,663 408,663 407,664 406,664 405,665 404,665 403,666 401,666 400,667 397,667 396,668 395,667 387,667 387,668 386,669 385,668 385,667 382,667 382,669 381,670 380,670 379,669 372,669 371,668 368,668 367,667 365,667 364,666 362,666 361,665 360,665 359,664 358,664 357,663 355,663 353,661 352,661 350,659 349,659 348,658 347,658 344,655 340,655 340,658 339,659 339,664 338,665 338,669 337,670 337,674 336,675 336,679 335,680 335,684 334,685 334,688 333,689 333,692 332,693 332,697 331,698 331,701 330,702 330,706 329,707 329,710 328,711 328,714 327,715 327,718 326,719 326,722 325,723 325,726 324,727 324,729 323,730 323,733 322,734 322,737 321,738 321,740 320,741 320,744 319,745 319,748 318,749 318,751 317,752 317,754 316,755 316,757 315,758 315,760 314,761 314,764 313,765 313,767 312,768 312,769 311,770 311,772 310,773 310,775 309,776 309,778 308,779 308,781 307,782 307,784 306,785 306,786 305,787 305,789 304,790 304,792 303,793 303,795 302,796 302,797 301,798 301,800 300,801 300,802 299,803 299,805 298,806 298,808 297,809 297,810 296,811 296,813 295,814 295,815 294,816 294,817 293,818 293,820 292,821 292,822 291,823 291,825 290,826 290,827 289,828 289,829 288,830 288,831 287,832 287,834 285,836 285,838 284,839 284,840 283,841 283,842 282,843 282,844 281,845 281,846 280,847 280,849 279,850 279,851 278,852 278,853 277,854 277,855 276,856 276,857 274,859 274,861 273,862 273,863 272,864 272,865 271,866 271,867 269,869 269,870 268,871 268,872 267,873 267,874 266,875 266,876 265,877 265,878 264,879 264,880 262,882 262,883 261,884 261,885 260,886 260,887 259,888 259,889 257,891 257,892 256,893 256,894 254,896 254,897 252,899 252,900 251,901 251,902 249,904 249,905 248,906 248,907 246,909 246,910 243,913 243,914 241,916 241,917 239,919 239,920 237,922 237,923 234,926 234,927 231,930 231,931 228,934 228,935 224,939 224,940 202,962 201,962 196,967 195,967 192,970 191,970 190,971 189,971 187,973 186,973 184,975 183,975 181,977 180,977 179,978 178,978 176,980 174,980 172,982 171,982 170,983 169,983 168,984 166,984 165,985 165,987 166,988 170,988 171,989 175,989 176,990 181,990 182,991 190,991 191,992 207,992 208,993 212,993 213,992 227,992 228,991 233,991 234,990 238,990 239,989 242,989 245,986 246,986 247,987 247,988 249,988 250,987 251,987 252,986 253,986 254,985 256,985 257,984 260,984 261,983 264,983 265,982 268,982 269,981 274,981 275,980 282,980 283,979 306,979 307,980 316,980 317,981 320,981 321,982 323,982 323,979 324,978 324,976 323,975 323,972 324,971 324,958 325,957 330,957 331,958 328,961 328,963 327,964 327,968 326,969 326,973 327,974 327,979 328,980 328,981 334,987 335,987 338,990 339,990 340,991 341,991 343,993 345,993 346,994 347,994 348,995 353,995 354,996 361,996 362,995 364,995 365,994 367,994 370,991 371,991 371,989 372,988 372,987 373,986 373,975 372,974 372,972 371,971 371,970 372,969 377,974 378,974 381,977 382,977 384,979 385,979 386,980 387,980 388,981 389,981 390,982 391,982 392,983 393,983 394,984 396,984 397,985 398,985 399,986 401,986 402,987 404,987 405,988 408,988 409,989 411,989 412,990 417,990 418,991 438,991 439,990 442,990 443,989 446,989 447,988 450,988 452,986 454,986 455,985 456,985 457,984 459,984 460,983 468,983 469,984 470,984 471,985 472,985 473,986 474,986 476,988 487,988 488,987 490,987 491,986 492,986 493,985 494,985 495,984 496,984 497,985 496,986 496,988 505,988 506,987 513,987 514,988 525,988 526,989 532,989 533,990 545,990 546,991 562,991 563,990 570,990 571,989 576,989 577,988 578,988 578,980 576,978 575,978 574,977 572,977 571,976 566,976 565,975 562,975 561,974 560,974 559,973 558,973 557,972 556,972 554,970 555,969 559,969 559,960 558,959 558,955 557,954 557,948 556,947 556,941 555,940 555,930 554,929 554,916 553,915 553,896 552,895 552,893 553,892 553,890 552,889 552,861 553,860 553,841 554,840 554,829 555,828 555,818 556,817 556,806 557,805 557,796 558,795 558,788 559,787 559,780 560,779 560,773 561,772 561,768 562,767 563,767 564,768 564,774 563,775 563,782 562,783 562,792 561,793 561,801 560,802 560,810 559,811 559,821 558,822 558,831 557,832 557,844 556,845 556,865 555,866 555,870 556,871 556,891 557,892 559,892 560,891 561,891 565,887 566,887 573,880 573,879 582,870 582,869 589,862 590,862 592,860 593,860 595,858 595,854 594,853 594,846 593,845 593,839 592,838 592,832 591,831 591,825 590,824 590,819 589,818 589,812 588,811 588,803 587,802 587,795 588,794 590,796 590,802 591,803 591,808 592,809 592,815 593,816 593,821 594,822 594,828 595,829 595,835 596,836 596,840 597,841 597,848 598,849 598,856 602,856 603,855 608,855 609,854 625,854 626,853 629,853 630,852 633,852 634,851 635,851 636,850 638,850 640,848 641,848 643,846 644,846 654,836 654,835 656,833 656,832 657,831 657,830 658,829 658,828 659,827 659,826 660,825 660,822 661,821 661,818 662,817 662,812 663,811 663,799 662,798 662,791 661,790 661,784 660,783 660,779 659,778 659,773 658,772 658,768 657,767 657,764 656,763 656,759 655,758 655,755 654,754 654,751 653,750 653,747 652,746 652,743 651,742 651,738 650,737 650,735 649,734 649,732 648,731 648,729 647,728 647,725 646,724 646,721 647,720 648,721 648,723 649,724 649,726 650,727 650,729 651,730 651,732 652,733 652,735 653,736 653,738 654,739 654,742 655,743 655,745 656,746 656,749 657,750 657,753 658,754 658,757 659,758 659,761 660,762 660,765 661,766 661,770 662,771 662,779 665,779 665,777 666,776 666,775 667,774 667,773 669,771 669,770 676,763 677,763 679,761 680,761 681,760 682,760 683,759 685,759 686,758 688,758 689,757 689,756 690,755 691,756 691,757 692,758 697,758 698,759 700,759 701,760 703,760 704,761 705,761 707,763 708,763 709,764 710,764 713,767 714,767 715,768 715,769 716,769 720,773 720,774 723,777 725,777 725,774 724,773 724,768 723,767 723,763 722,762 722,758 721,757 721,754 720,753 720,750 719,749 719,746 718,745 718,742 717,741 717,739 716,738 716,735 715,734 715,732 714,731 714,729 713,728 713,726 712,725 712,723 711,722 711,718 712,717 713,718 713,720 714,721 714,723 715,724 715,725 716,726 716,728 717,729 717,732 718,733 718,735 719,736 719,738 720,739 720,742 721,743 721,746 722,747 722,750 723,751 723,755 724,756 724,759 725,760 725,763 726,764 726,768 727,769 727,773 728,774 728,779 729,780 729,785 730,786 730,791 731,792 731,799 732,800 732,810 733,811 733,836 735,836 737,834 737,833 740,830 740,829 742,827 742,826 744,824 744,823 746,821 746,820 747,819 747,818 748,817 748,816 750,814 750,813 751,812 751,811 753,809 753,808 754,807 754,805 755,804 755,803 756,802 756,800 757,799 757,797 758,796 758,795 759,794 759,792 760,791 760,788 761,787 761,785 762,784 762,781 763,780 763,776 764,775 764,770 765,769 765,764 766,763 766,748 765,747 765,741 764,740 764,736 763,735 763,733 762,732 762,729 761,728 761,726 760,725 760,723 759,722 759,720 758,719 758,718 757,717 757,715 756,714 756,713 755,712 755,710 754,709 754,708 753,707 753,705 751,703 751,701 749,699 749,698 748,697 748,695 747,694 747,693 746,692 746,691 745,690 745,689 744,688 744,687 743,686 743,685 742,684 742,683 741,682 741,681 740,680 740,679 738,677 738,675 736,673 736,672 735,671 735,670 733,668 733,667 732,666 732,665 731,664 731,663 729,661 729,660 728,659 728,658 726,656 726,655 725,654 725,653 723,651 723,650 722,649 722,648 719,645 719,644 717,642 717,641 715,639 715,638 713,636 713,635 711,633 711,632 708,629 708,628 706,626 706,625 703,622 703,621 700,618 700,617 698,615 698,614 695,611 695,610 692,607 692,606 690,604 690,601 688,601 687,600 687,599 683,595 683,594 679,590 679,589 676,586 676,585 673,582 673,581 671,579 671,578 667,574 667,573 664,570 664,569 661,566 661,565 659,563 659,562 657,560 657,559 653,555 653,554 651,552 651,551 649,549 649,548 647,546 647,545 645,543 645,542 643,540 643,539 642,538 642,537 639,534 639,533 638,532 638,531 636,529 636,528 634,526 634,525 633,524 633,523 632,522 632,521 630,519 630,518 629,517 629,516 627,514 627,513 626,512 626,511 625,510 625,509 624,508 624,507 623,506 623,505 622,504 622,503 621,502 621,501 620,500 620,499 619,498 619,497 618,496 618,495 617,494 617,493 616,492 616,491 615,490 615,488 614,487 614,486 613,485 613,484 612,483 612,481 611,480 611,479 610,478 610,476 609,475 609,473 608,472 608,470 607,469 607,468 606,467 606,465 604,463 601,463 600,462 601,461 604,461 605,460 609,460 610,461 612,461 612,460 614,458 617,458 618,457 620,457 621,456 624,456 625,455 627,455 628,454 630,454 631,453 633,453 634,452 636,452 637,451 638,451 639,450 641,450 642,449 644,449 645,448 646,448 647,447 648,447 649,446 650,446 651,445 652,445 653,444 655,444 656,443 657,443 658,442 659,442 660,441 662,441 663,440 664,440 665,439 666,439 667,438 669,438 670,437 672,437 673,436 674,436 675,435 677,435 678,434 679,434 680,433 682,433 683,432 684,432 685,431 686,431 687,430 689,430 690,429 692,431 693,431 694,432 695,432 696,433 697,433 698,434 699,434 700,435 703,435 704,436 719,436 720,437 720,438 721,439 721,443 727,443 729,441 730,442 733,442 734,441 737,441 738,442 738,443 739,443 741,445 742,445 744,447 745,447 747,449 751,449 753,451 754,451 756,453 762,453 764,451 764,450 765,449 768,449 769,448 769,439 768,438 768,434 767,433 767,430 766,429 766,427 767,426 770,426 775,431 775,432 779,432 779,426 778,425 778,421 777,420 777,416 776,415 776,413 775,412 775,406 774,405 774,400 773,399 773,394 772,393 772,388 771,387 771,385 770,384 770,380 769,379 769,375 768,374 768,371 767,370 767,366 766,365 766,360 765,359 765,356 764,355 764,352 763,351 763,349 762,348 762,346 761,345 761,342 760,341 760,339 759,338 759,337 758,336 758,334 757,333 757,331 756,330 756,329 755,328 755,326 754,325 754,324 753,323 753,322 751,320 751,319 748,316 748,315 730,297 730,295 729,294 729,292 730,291 730,289 729,288 729,287 727,285 727,284 726,283 726,282 725,281 725,276 723,274 723,273 722,272 722,271 719,268 719,267 716,264 716,261 715,261 712,258 712,257 710,257 709,256 708,256 706,254 705,254 704,253 704,252 705,251 705,250 706,249 706,247 705,246 705,244 706,243 706,240 705,239 703,239 701,241 700,241 698,243 697,243 696,244 694,244 693,245 692,245 691,246 690,246 689,247 688,247 687,248 685,248 683,250 682,250 681,251 679,251 678,250 678,248 676,246 677,245 677,242 674,242 665,251 665,252 663,254 663,255 662,256 662,257 661,258 661,259 659,261 659,262 657,264 657,265 656,266 656,267 655,268 655,269 654,270 654,272 653,273 653,276 654,277 654,280 655,281 654,282 654,288 653,289 653,295 654,296 654,298 655,299 655,300 657,302 657,303 658,303 659,304 657,306 657,307 654,310 654,311 653,312 653,313 652,314 652,315 651,316 651,317 650,318 650,321 649,322 649,336 650,337 650,341 651,342 651,344 652,345 652,347 653,348 653,350 654,351 654,352 655,353 655,354 656,355 656,356 657,357 657,358 658,359 658,360 659,361 659,362 662,365 662,366 665,369 666,369 669,372 670,372 673,375 674,375 678,379 679,379 682,382 682,383 683,383 684,384 684,385 685,386 686,386 688,388 689,388 692,391 692,392 689,395 688,395 687,396 684,396 683,397 682,397 681,398 679,398 678,399 675,399 674,400 673,400 669,404 669,405 668,406 668,409 667,410 663,410 662,411 655,411 654,412 648,412 647,413 641,413 640,414 634,414 633,415 627,415 626,416 619,416 618,417 611,417 610,418 604,418 603,419 596,419 595,420 594,419 594,418 593,417 593,416 592,415 592,413 590,411 590,409 589,408 589,407 588,406 588,405 587,404 587,402 586,401 586,399 585,398 585,397 584,396 584,394 583,393 583,392 582,391 582,389 580,387 580,384 579,383 579,374 578,373 578,371 577,370 577,369 575,367 575,366 573,364 573,363 572,362 572,359 573,358 573,355 572,354 572,353 571,352 571,351 570,350 570,347 569,346 569,343 568,342 568,339 567,338 567,336 566,335 566,333 565,332 565,331 564,330 564,329 562,327 562,326 558,322 558,321 556,321 554,319 553,319 552,318 550,318 549,317 546,317 545,316 545,315 541,311 540,311 538,309 537,309 536,308 528,308 527,309 525,309 525,310 524,311 523,311 521,309 520,309 518,307 517,307 516,306 516,305 515,304 515,296 516,295 516,286 517,285 521,285 521,283 522,282 525,285 528,285 529,286 541,286 543,284 544,284 544,283 545,282 545,275 547,273 547,272 548,271 548,266 550,264 550,260 553,257 555,257 556,256 556,250 555,249 555,248 554,247 554,245 553,244 553,242 552,241 552,239 551,238 551,234 550,233 550,227 549,226 549,225 550,224 557,231 559,231 559,224 558,223 558,221 557,220 557,214 556,213 556,209 555,208 555,204 554,203 554,200 553,199 553,196 552,195 552,193 551,192 551,189 550,188 550,187 549,186 549,183 548,182 548,181 545,181 545,182 539,188 538,188 537,187 538,186 538,184 535,181 534,181 532,179 531,179 530,178 529,178 527,176 526,176 525,175 523,175 522,174 523,173 524,173 526,171 526,170 528,168 528,167 529,166 529,165 530,164 530,160 531,159 532,159 532,158 533,157 533,156 534,155 534,154 536,152 536,151 537,150 537,149 539,147 539,146 544,141 546,141 546,138 550,134 551,134 554,131 555,131 556,130 557,130 558,129 558,126 557,126 556,125 555,125 554,124 553,124 552,123 550,123 549,122 547,122 546,121 544,121 543,120 541,120 540,119 537,119 536,118 532,118 531,117 528,117 527,116 521,116 520,115 514,115 513,114" /></svg>